<svg width="28" height="28" viewBox="0 0 28 28" fill="none" xmlns="http://www.w3.org/2000/svg">
<path d="M21.4973 14.8683C21.536 19.0726 25.1444 20.472 25.1845 20.49C25.1538 20.5885 24.6078 22.4836 23.2834 24.4412C22.1384 26.1338 20.95 27.8199 19.0781 27.8549C17.2383 27.8896 16.6468 26.7518 14.544 26.7518C12.4415 26.7518 11.7844 27.8206 10.0433 27.89C8.23621 27.959 6.86048 26.0598 5.70581 24.3737C3.34625 20.9232 1.54342 14.6256 3.96437 10.3748C5.16711 8.26353 7.31591 6.92691 9.64843 6.89262C11.4229 6.85833 13.0974 8.09988 14.1828 8.09988C15.2666 8.09988 17.3019 6.60654 19.4417 6.82577C20.3375 6.86332 22.852 7.1915 24.466 9.58149C24.3361 9.66288 21.4662 11.3527 21.4973 14.8676M18.0402 4.54431C18.9995 3.37005 19.6456 1.73476 19.4696 0.108154C18.0865 0.164588 16.4142 1.04019 15.4224 2.21358C14.5335 3.25327 13.7548 4.91677 13.9651 6.51126C15.5061 6.63194 17.081 5.71922 18.0402 4.54431Z" fill="#F9F9F9"/>
</svg>
