<svg width="16" height="16" viewBox="0 0 16 16" fill="none" xmlns="http://www.w3.org/2000/svg">
<path d="M12 5.59967C12 4.46808 11.5786 3.38284 10.8284 2.58269C10.0783 1.78253 9.06087 1.33301 8 1.33301C6.93913 1.33301 5.92172 1.78253 5.17157 2.58269C4.42143 3.38284 4 4.46808 4 5.59967C4 10.5775 2 11.9997 2 11.9997H14C14 11.9997 12 10.5775 12 5.59967Z" stroke="#3F9E9D" stroke-width="1.33333" stroke-linecap="round" stroke-linejoin="round"/>
<path d="M9.15335 14C9.03614 14.2021 8.86791 14.3698 8.6655 14.4864C8.46309 14.6029 8.2336 14.6643 8.00001 14.6643C7.76643 14.6643 7.53694 14.6029 7.33453 14.4864C7.13212 14.3698 6.96389 14.2021 6.84668 14" stroke="#3F9E9D" stroke-width="1.33333" stroke-linecap="round" stroke-linejoin="round"/>
</svg>
