<svg width="24" height="24" viewBox="0 0 24 24" fill="none" xmlns="http://www.w3.org/2000/svg">
<path fill-rule="evenodd" clip-rule="evenodd" d="M20.8102 11.6306C20.7122 11.6471 20.6247 11.7019 20.567 11.7829C20.5094 11.8639 20.4863 11.9645 20.5028 12.0626C20.5837 12.5426 20.625 13.0263 20.625 13.5003C20.625 16.1433 19.4475 18.5291 17.5485 20.1176C17.3902 19.0777 16.9411 18.1038 16.253 17.3082C15.565 16.5127 14.6659 15.9279 13.6597 15.6213C14.0716 15.348 14.4095 14.9771 14.6433 14.5416C14.8772 14.1062 14.9997 13.6196 15 13.1253C15 11.4708 13.6545 10.1253 12 10.1253C10.3455 10.1253 9 11.4708 9 13.1253C9 14.1663 9.53325 15.0828 10.3403 15.6213C9.33406 15.9279 8.43505 16.5127 7.74697 17.3082C7.05889 18.1038 6.60979 19.0777 6.4515 20.1176C5.4849 19.3076 4.70826 18.295 4.1766 17.1514C3.64494 16.0079 3.37128 14.7614 3.375 13.5003C3.375 13.0263 3.41625 12.5433 3.49725 12.0626C3.50628 12.0137 3.50549 11.9634 3.49492 11.9148C3.48435 11.8662 3.46422 11.8202 3.43569 11.7795C3.40717 11.7387 3.37082 11.704 3.32876 11.6775C3.28671 11.6509 3.23979 11.633 3.19074 11.6247C3.14169 11.6165 3.09148 11.618 3.04305 11.6294C2.99461 11.6407 2.94892 11.6616 2.90862 11.6907C2.86832 11.7199 2.83423 11.7568 2.80833 11.7992C2.78243 11.8417 2.76523 11.8889 2.75775 11.9381C2.67016 12.4542 2.62576 12.9768 2.625 13.5003C2.625 18.1053 5.9145 21.9926 10.446 22.7426C10.5424 22.755 10.6398 22.7296 10.7178 22.6717C10.7958 22.6137 10.8483 22.5277 10.8641 22.4318C10.88 22.336 10.858 22.2377 10.8028 22.1577C10.7476 22.0777 10.6635 22.0223 10.5682 22.0031C9.34297 21.8007 8.17616 21.335 7.14825 20.6381C7.3275 18.0933 9.42 16.1253 12 16.1253C14.58 16.1253 16.6717 18.0933 16.8525 20.6381C15.8244 21.3351 14.6573 21.8008 13.4318 22.0031C13.3818 22.0095 13.3337 22.026 13.2902 22.0515C13.2468 22.0769 13.2089 22.1109 13.1789 22.1513C13.1489 22.1917 13.1273 22.2378 13.1154 22.2867C13.1036 22.3356 13.1017 22.3865 13.1099 22.4361C13.1181 22.4858 13.1362 22.5333 13.1632 22.5759C13.1902 22.6184 13.2255 22.655 13.2669 22.6836C13.3083 22.7122 13.3551 22.7322 13.4045 22.7423C13.4538 22.7524 13.5046 22.7525 13.554 22.7426C18.0855 21.9926 21.375 18.1061 21.375 13.5003C21.375 12.9843 21.33 12.4586 21.2423 11.9381C21.2343 11.8894 21.2167 11.8429 21.1906 11.801C21.1646 11.7592 21.1304 11.7229 21.0903 11.6944C21.0501 11.6658 21.0047 11.6454 20.9566 11.6345C20.9086 11.6235 20.8588 11.6222 20.8102 11.6306ZM9.75 13.1253C9.75 11.8848 10.7595 10.8753 12 10.8753C13.2405 10.8753 14.25 11.8848 14.25 13.1253C14.25 14.3658 13.2405 15.3753 12 15.3753C10.7595 15.3753 9.75 14.3658 9.75 13.1253ZM16.107 4.10958C16.0854 4.04289 16.0456 3.98359 15.9921 3.93838C15.9385 3.89318 15.8734 3.86389 15.804 3.85383L13.4078 3.50583L12.336 1.33383C12.21 1.07883 11.79 1.07883 11.664 1.33383L10.5922 3.50583L8.196 3.85383C8.12674 3.86389 8.06167 3.89313 8.00816 3.93824C7.95466 3.98336 7.91484 4.04255 7.89323 4.10911C7.87161 4.17568 7.86905 4.24697 7.88585 4.31491C7.90264 4.38286 7.93811 4.44475 7.98825 4.49358L9.72225 6.18333L9.31275 8.56983C9.30088 8.63884 9.30858 8.7098 9.33496 8.77466C9.36135 8.83953 9.40537 8.89571 9.46204 8.93685C9.51871 8.97799 9.58576 9.00243 9.65561 9.00742C9.72546 9.01241 9.79531 8.99774 9.85725 8.96508L12 7.83783L14.1427 8.96508C14.2046 8.99823 14.2745 9.01316 14.3445 9.00811C14.4145 9.00307 14.4816 8.97826 14.538 8.93658C14.5947 8.8954 14.6388 8.83914 14.6652 8.77418C14.6916 8.70922 14.6992 8.63816 14.6873 8.56908L14.2778 6.18408L16.0125 4.49283C16.0626 4.44406 16.0981 4.38226 16.1149 4.31441C16.1317 4.24656 16.1292 4.17535 16.1077 4.10883L16.107 4.10958ZM13.6125 5.78283C13.5689 5.82532 13.5364 5.87776 13.5175 5.93564C13.4987 5.99351 13.4943 6.05509 13.5045 6.11508L13.8195 7.94733L12.174 7.08183C12.12 7.0537 12.0601 7.03901 11.9992 7.03901C11.9384 7.03901 11.8785 7.0537 11.8245 7.08183L10.1797 7.94733L10.494 6.11508C10.5042 6.05509 10.4998 5.99351 10.481 5.93564C10.4622 5.87776 10.4296 5.82532 10.386 5.78283L9.0555 4.48608L10.8945 4.21908C10.9545 4.21026 11.0116 4.18703 11.0607 4.15137C11.1098 4.11572 11.1495 4.06869 11.1765 4.01433L12 2.34783L12.8228 4.01508C12.8497 4.06944 12.8895 4.11647 12.9386 4.15212C12.9877 4.18778 13.0447 4.21101 13.1047 4.21983L14.9437 4.48683L13.6132 5.78358L13.6125 5.78283Z" fill="#3F9E9D"/>
<path fill-rule="evenodd" clip-rule="evenodd" d="M3.02624 10.1426C3.0142 10.2116 3.02177 10.2827 3.04809 10.3477C3.0744 10.4127 3.11841 10.469 3.17511 10.5102C3.23181 10.5515 3.29893 10.576 3.36887 10.581C3.4388 10.586 3.50874 10.5713 3.57074 10.5386L5.24999 9.65508L6.92999 10.5386C6.99172 10.5716 7.06154 10.5864 7.13136 10.5814C7.20118 10.5763 7.26814 10.5516 7.32449 10.5101C7.38123 10.4689 7.4253 10.4126 7.45168 10.3477C7.47806 10.2827 7.4857 10.2117 7.47374 10.1426L7.15274 8.27283L8.51174 6.94908C8.5621 6.90028 8.59776 6.83833 8.61469 6.77028C8.63161 6.70222 8.62911 6.63079 8.60747 6.56408C8.58584 6.49738 8.54593 6.43808 8.49228 6.39291C8.43864 6.34775 8.3734 6.31853 8.30399 6.30858L6.42599 6.03633L5.58599 4.33383C5.45999 4.07883 5.03999 4.07883 4.91399 4.33383L4.07399 6.03633L2.19599 6.30858C2.12657 6.31853 2.06134 6.34775 2.00769 6.39291C1.95404 6.43808 1.91414 6.49738 1.8925 6.56408C1.87087 6.63079 1.86837 6.70222 1.88529 6.77028C1.90221 6.83833 1.93788 6.90028 1.98824 6.94908L3.34724 8.27283L3.02624 10.1426ZM3.05624 6.94233L4.37624 6.75033C4.43642 6.74162 4.49359 6.71845 4.54283 6.68278C4.59208 6.64712 4.63194 6.60004 4.65899 6.54558L5.24999 5.34783L5.84099 6.54558C5.86796 6.59994 5.9077 6.64697 5.95682 6.68262C6.00593 6.71828 6.06294 6.74151 6.12299 6.75033L7.44374 6.94233L6.48824 7.87308C6.44468 7.91557 6.41209 7.96801 6.39327 8.02589C6.37446 8.08376 6.36999 8.14534 6.38024 8.20533L6.60599 9.52083L5.42474 8.89983C5.37078 8.8717 5.31083 8.85701 5.24999 8.85701C5.18914 8.85701 5.12919 8.8717 5.07524 8.89983L3.89399 9.52083L4.11899 8.20533C4.12933 8.1454 4.12497 8.08386 4.10629 8.02599C4.08761 7.96812 4.05517 7.91565 4.01174 7.87308L3.05624 6.94233ZM21.804 6.30858L19.926 6.03633L19.086 4.33383C18.96 4.07883 18.54 4.07883 18.414 4.33383L17.574 6.03633L15.696 6.30858C15.6266 6.31853 15.5613 6.34775 15.5077 6.39291C15.454 6.43808 15.4141 6.49738 15.3925 6.56408C15.3709 6.63079 15.3684 6.70222 15.3853 6.77028C15.4022 6.83833 15.4379 6.90028 15.4882 6.94908L16.8472 8.27283L16.5262 10.1426C16.5142 10.2116 16.5218 10.2827 16.5481 10.3477C16.5744 10.4127 16.6184 10.469 16.6751 10.5102C16.7318 10.5515 16.7989 10.576 16.8689 10.581C16.9388 10.586 17.0087 10.5713 17.0707 10.5386L18.75 9.65508L20.43 10.5386C20.4917 10.5716 20.5615 10.5864 20.6314 10.5814C20.7012 10.5763 20.7681 10.5516 20.8245 10.5101C20.8812 10.4689 20.9253 10.4126 20.9517 10.3477C20.9781 10.2827 20.9857 10.2117 20.9737 10.1426L20.6527 8.27283L22.0117 6.94908C22.0621 6.90028 22.0978 6.83833 22.1147 6.77028C22.1316 6.70222 22.1291 6.63079 22.1075 6.56408C22.0858 6.49738 22.0459 6.43808 21.9923 6.39291C21.9386 6.34775 21.8734 6.31853 21.804 6.30858ZM19.9882 7.87308C19.9447 7.91557 19.9121 7.96801 19.8933 8.02589C19.8745 8.08376 19.87 8.14534 19.8802 8.20533L20.106 9.52083L18.9247 8.89983C18.8708 8.8717 18.8108 8.85701 18.75 8.85701C18.6891 8.85701 18.6292 8.8717 18.5752 8.89983L17.394 9.52083L17.619 8.20533C17.6293 8.1454 17.625 8.08386 17.6063 8.02599C17.5876 7.96812 17.5552 7.91565 17.5117 7.87308L16.5562 6.94233L17.8762 6.75033C17.9364 6.74162 17.9936 6.71845 18.0428 6.68278C18.0921 6.64712 18.1319 6.60004 18.159 6.54558L18.75 5.34783L19.341 6.54558C19.368 6.59994 19.4077 6.64697 19.4568 6.68262C19.5059 6.71828 19.5629 6.74151 19.623 6.75033L20.9437 6.94233L19.9882 7.87308Z" fill="#3F9E9D"/>
<path d="M12 22.875C12.2071 22.875 12.375 22.7071 12.375 22.5C12.375 22.2929 12.2071 22.125 12 22.125C11.7929 22.125 11.625 22.2929 11.625 22.5C11.625 22.7071 11.7929 22.875 12 22.875Z" fill="#3F9E9D"/>
</svg>
