<svg width="24" height="25" viewBox="0 0 24 25" fill="none" xmlns="http://www.w3.org/2000/svg">
<path d="M3 3.5L21 21.5" stroke="#6B7280" stroke-width="1.5" stroke-linecap="round" stroke-linejoin="round"/>
<path d="M10.5 11.177C10.1888 11.5296 10 11.9927 10 12.4999C10 13.6045 10.8954 14.4999 12 14.4999C12.5072 14.4999 12.9703 14.3111 13.3229 13.9999" stroke="#6B7280" stroke-width="1.5" stroke-linecap="round" stroke-linejoin="round"/>
<path d="M7.36185 8.06104C5.68002 9.23962 4.27894 10.9188 3 12.5C4.88856 15.4909 8.2817 18.5 12 18.5C13.5499 18.5 15.0434 17.9771 16.3949 17.1507" stroke="#6B7280" stroke-width="1.5" stroke-linecap="round" stroke-linejoin="round"/>
<path d="M12 6.5C16.0084 6.5 18.7015 9.6582 21 12.5C20.6815 13.0043 20.3203 13.5092 19.922 14" stroke="#6B7280" stroke-width="1.5" stroke-linecap="round" stroke-linejoin="round"/>
</svg>
