<svg width="28" height="28" viewBox="0 0 28 28" fill="none" xmlns="http://www.w3.org/2000/svg">
<g clip-path="url(#clip0_2834_6350)">
<mask id="mask0_2834_6350" style="mask-type:luminance" maskUnits="userSpaceOnUse" x="0" y="0" width="28" height="28">
<path d="M27.483 11.4546H14.4375V16.8636H21.9466C21.2466 20.3 18.3193 22.2727 14.4375 22.2727C9.85568 22.2727 6.16477 18.5818 6.16477 14C6.16477 9.41819 9.85568 5.72728 14.4375 5.72728C16.4102 5.72728 18.192 6.42728 19.592 7.57273L23.6648 3.5C21.183 1.33636 18.0011 0 14.4375 0C6.67387 0 0.4375 6.23637 0.4375 14C0.4375 21.7636 6.67387 28 14.4375 28C21.4375 28 27.8011 22.9091 27.8011 14C27.8011 13.1727 27.6739 12.2818 27.483 11.4546Z" fill="white"/>
</mask>
<g mask="url(#mask0_2834_6350)">
<path d="M-0.83522 22.2728V5.72729L9.98296 14L-0.83522 22.2728Z" fill="#FBBC05"/>
</g>
<mask id="mask1_2834_6350" style="mask-type:luminance" maskUnits="userSpaceOnUse" x="0" y="0" width="28" height="28">
<path d="M27.483 11.4546H14.4375V16.8636H21.9466C21.2466 20.3 18.3193 22.2727 14.4375 22.2727C9.85568 22.2727 6.16477 18.5818 6.16477 14C6.16477 9.41819 9.85568 5.72728 14.4375 5.72728C16.4102 5.72728 18.192 6.42728 19.592 7.57273L23.6648 3.5C21.183 1.33636 18.0011 0 14.4375 0C6.67387 0 0.4375 6.23637 0.4375 14C0.4375 21.7636 6.67387 28 14.4375 28C21.4375 28 27.8011 22.9091 27.8011 14C27.8011 13.1727 27.6739 12.2818 27.483 11.4546Z" fill="white"/>
</mask>
<g mask="url(#mask1_2834_6350)">
<path d="M-0.83522 5.7273L9.98297 14L14.4375 10.1182L29.7102 7.63639V-1.27271H-0.83522V5.7273Z" fill="#EA4335"/>
</g>
<mask id="mask2_2834_6350" style="mask-type:luminance" maskUnits="userSpaceOnUse" x="0" y="0" width="28" height="28">
<path d="M27.483 11.4546H14.4375V16.8636H21.9466C21.2466 20.3 18.3193 22.2727 14.4375 22.2727C9.85568 22.2727 6.16477 18.5818 6.16477 14C6.16477 9.41819 9.85568 5.72728 14.4375 5.72728C16.4102 5.72728 18.192 6.42728 19.592 7.57273L23.6648 3.5C21.183 1.33636 18.0011 0 14.4375 0C6.67387 0 0.4375 6.23637 0.4375 14C0.4375 21.7636 6.67387 28 14.4375 28C21.4375 28 27.8011 22.9091 27.8011 14C27.8011 13.1727 27.6739 12.2818 27.483 11.4546Z" fill="white"/>
</mask>
<g mask="url(#mask2_2834_6350)">
<path d="M-0.83522 22.2728L18.2557 7.63639L23.283 8.27275L29.7102 -1.27271V29.2728H-0.83522V22.2728Z" fill="#34A853"/>
</g>
<mask id="mask3_2834_6350" style="mask-type:luminance" maskUnits="userSpaceOnUse" x="0" y="0" width="28" height="28">
<path d="M27.483 11.4546H14.4375V16.8636H21.9466C21.2466 20.3 18.3193 22.2727 14.4375 22.2727C9.85568 22.2727 6.16477 18.5818 6.16477 14C6.16477 9.41819 9.85568 5.72728 14.4375 5.72728C16.4102 5.72728 18.192 6.42728 19.592 7.57273L23.6648 3.5C21.183 1.33636 18.0011 0 14.4375 0C6.67387 0 0.4375 6.23637 0.4375 14C0.4375 21.7636 6.67387 28 14.4375 28C21.4375 28 27.8011 22.9091 27.8011 14C27.8011 13.1727 27.6739 12.2818 27.483 11.4546Z" fill="white"/>
</mask>
<g mask="url(#mask3_2834_6350)">
<path d="M29.7102 29.2728L9.98296 14L7.4375 12.0909L29.7102 5.72729V29.2728Z" fill="#4285F4"/>
</g>
</g>
<defs>
<clipPath id="clip0_2834_6350">
<rect width="28" height="28" fill="white"/>
</clipPath>
</defs>
</svg>
