<svg width="183" height="60" viewBox="0 0 183 60" fill="none" xmlns="http://www.w3.org/2000/svg">
<path d="M8.88 48H3.024V24.288H8.448L8.928 27.36C10.416 24.96 13.296 23.568 16.512 23.568C22.464 23.568 25.536 27.264 25.536 33.408V48H19.68V34.8C19.68 30.816 17.712 28.896 14.688 28.896C11.088 28.896 8.88 31.392 8.88 35.232V48ZM40.9376 48.624C33.8816 48.624 28.9376 43.488 28.9376 36.144C28.9376 28.704 33.7856 23.568 40.7456 23.568C47.8496 23.568 52.3616 28.32 52.3616 35.712V37.488L34.5056 37.536C34.9376 41.712 37.1456 43.824 41.0336 43.824C44.2496 43.824 46.3616 42.576 47.0336 40.32H52.4576C51.4496 45.504 47.1296 48.624 40.9376 48.624ZM40.7936 28.368C37.3376 28.368 35.2256 30.24 34.6496 33.792H46.5536C46.5536 30.528 44.2976 28.368 40.7936 28.368ZM54.6964 36.096C54.6964 28.704 60.0244 23.616 67.3684 23.616C74.7124 23.616 80.0404 28.704 80.0404 36.096C80.0404 43.488 74.7124 48.576 67.3684 48.576C60.0244 48.576 54.6964 43.488 54.6964 36.096ZM60.5524 36.096C60.5524 40.416 63.3364 43.344 67.3684 43.344C71.4004 43.344 74.1844 40.416 74.1844 36.096C74.1844 31.776 71.4004 28.848 67.3684 28.848C63.3364 28.848 60.5524 31.776 60.5524 36.096ZM91.5518 48H85.6958V29.184H81.1358V24.288H85.6958V16.896H91.5518V24.288H96.1598V29.184H91.5518V48ZM109.214 48.624C102.158 48.624 97.2139 43.488 97.2139 36.144C97.2139 28.704 102.062 23.568 109.022 23.568C116.126 23.568 120.638 28.32 120.638 35.712V37.488L102.782 37.536C103.214 41.712 105.422 43.824 109.31 43.824C112.526 43.824 114.638 42.576 115.31 40.32H120.734C119.726 45.504 115.406 48.624 109.214 48.624ZM109.07 28.368C105.614 28.368 103.502 30.24 102.926 33.792H114.83C114.83 30.528 112.574 28.368 109.07 28.368ZM139.245 24.192V29.616H137.085C132.861 29.616 130.221 31.872 130.221 36.48V48H124.365V24.336H129.885L130.221 27.792C131.229 25.44 133.485 23.856 136.653 23.856C137.469 23.856 138.285 23.952 139.245 24.192ZM157.128 24.192V29.616H154.968C150.744 29.616 148.104 31.872 148.104 36.48V48H142.248V24.336H147.768L148.104 27.792C149.112 25.44 151.368 23.856 154.536 23.856C155.352 23.856 156.168 23.952 157.128 24.192ZM166.251 48.624C161.211 48.624 158.139 45.696 158.139 41.232C158.139 36.864 161.307 34.128 166.923 33.696L174.027 33.168V32.64C174.027 29.424 172.107 28.128 169.131 28.128C165.675 28.128 163.755 29.568 163.755 32.064H158.763C158.763 26.928 162.987 23.568 169.419 23.568C175.803 23.568 179.739 27.024 179.739 33.6V48H174.603L174.171 44.496C173.163 46.944 169.947 48.624 166.251 48.624ZM168.171 44.208C171.771 44.208 174.075 42.048 174.075 38.4V37.152L169.131 37.536C165.483 37.872 164.091 39.072 164.091 40.992C164.091 43.152 165.531 44.208 168.171 44.208Z" fill="#3F9E9D"/>
</svg>
