<svg width="46" height="46" viewBox="0 0 46 46" fill="none" xmlns="http://www.w3.org/2000/svg">
<rect x="0.5" y="0.5" width="45" height="45" rx="22.5" stroke="white"/>
<path d="M19.3525 31.4494C9.73894 31.2833 12.5346 19.1855 12.1668 13.0322C16.8152 14.6828 21.8897 14.6828 26.5381 13.0322C26.1695 19.2026 28.9668 31.2766 19.3525 31.4494Z" stroke="#C4C4C4" stroke-width="1.5" stroke-linecap="round" stroke-linejoin="round"/>
<path d="M17.999 19.9091C16.8748 21.4024 15.2459 21.3919 14.13 19.9091C15.2542 18.4159 16.8831 18.4259 17.999 19.9091Z" stroke="#C4C4C4" stroke-width="1.11335" stroke-linecap="round" stroke-linejoin="round"/>
<path d="M24.5749 19.9091C23.4507 21.4024 21.8218 21.3919 20.7059 19.9091C21.8301 18.4159 23.459 18.4259 24.5749 19.9091Z" stroke="#C4C4C4" stroke-width="1.11335" stroke-linecap="round" stroke-linejoin="round"/>
<path d="M19.3524 28.0187C17.8299 28.0266 16.6694 26.697 16.7905 25.1963H21.9147C22.0354 26.697 20.8748 28.0262 19.3528 28.0187H19.3524Z" stroke="#C4C4C4" stroke-width="1.11335" stroke-linecap="round" stroke-linejoin="round"/>
<path d="M26.549 16.6358C29.0124 16.6475 31.4778 16.235 33.8335 15.3984C33.4649 21.5688 36.2623 33.6428 26.6479 33.8152C23.952 33.7689 22.2325 32.7841 21.1446 31.2554" stroke="#C4C4C4" stroke-width="1.5" stroke-linecap="round" stroke-linejoin="round"/>
<path d="M31.8703 22.2753C30.7461 23.7686 29.1172 23.7581 28.0013 22.2753C29.1255 20.7821 30.7544 20.7921 31.8703 22.2753Z" stroke="#C4C4C4" stroke-width="1.11335" stroke-linecap="round" stroke-linejoin="round"/>
<path d="M25.5959 27.5625H29.2098C29.3309 29.0628 28.1699 30.3924 26.6479 30.3845C25.7687 30.3891 25.0102 29.9474 24.5493 29.2845" stroke="#C4C4C4" stroke-width="1.11335" stroke-linecap="round" stroke-linejoin="round"/>
</svg>
