<svg width="24" height="24" viewBox="0 0 24 24" fill="none" xmlns="http://www.w3.org/2000/svg">
<path d="M8.35246 20.4494C-1.26106 20.2833 1.53462 8.18549 1.16684 2.03223C5.81518 3.68284 10.8897 3.68284 15.5381 2.03223C15.1695 8.2026 17.9668 20.2766 8.35246 20.4494Z" stroke="#C4C4C4" stroke-width="1.5" stroke-linecap="round" stroke-linejoin="round"/>
<path d="M6.99896 8.90914C5.87476 10.4024 4.24586 10.3919 3.13 8.90914C4.25421 7.41591 5.88311 7.42593 6.99896 8.90914Z" stroke="#C4C4C4" stroke-width="1.11335" stroke-linecap="round" stroke-linejoin="round"/>
<path d="M13.5749 8.90914C12.4507 10.4024 10.8218 10.3919 9.70593 8.90914C10.8301 7.41591 12.459 7.42593 13.5749 8.90914Z" stroke="#C4C4C4" stroke-width="1.11335" stroke-linecap="round" stroke-linejoin="round"/>
<path d="M8.35239 17.0187C6.82993 17.0266 5.66941 15.697 5.79048 14.1963H10.9147C11.0354 15.697 9.87484 17.0262 8.3528 17.0187H8.35239Z" stroke="#C4C4C4" stroke-width="1.11335" stroke-linecap="round" stroke-linejoin="round"/>
<path d="M15.549 5.63577C18.0124 5.64746 20.4778 5.23501 22.8335 4.39844C22.4649 10.5688 25.2623 22.6428 15.6479 22.8152C12.952 22.7689 11.2325 21.7841 10.1446 20.2554" stroke="#C4C4C4" stroke-width="1.5" stroke-linecap="round" stroke-linejoin="round"/>
<path d="M20.8703 11.2753C19.7461 12.7686 18.1172 12.7581 17.0013 11.2753C18.1255 9.78212 19.7544 9.79214 20.8703 11.2753Z" stroke="#C4C4C4" stroke-width="1.11335" stroke-linecap="round" stroke-linejoin="round"/>
<path d="M14.5959 16.5625H18.2098C18.3309 18.0628 17.1699 19.3924 15.6479 19.3845C14.7687 19.3891 14.0102 18.9474 13.5493 18.2845" stroke="#C4C4C4" stroke-width="1.11335" stroke-linecap="round" stroke-linejoin="round"/>
</svg>
