<svg width="24" height="24" viewBox="0 0 24 24" fill="none" xmlns="http://www.w3.org/2000/svg">
<path d="M20.5541 21.0046H3.44568C2.84887 21.0039 2.27671 20.7665 1.8547 20.3445C1.43269 19.9225 1.19529 19.3503 1.19458 18.7535L1.19458 16.9526C1.19458 16.8332 1.24201 16.7187 1.32645 16.6343C1.41088 16.5498 1.52539 16.5024 1.6448 16.5024H2.09502C3.08821 16.5024 3.8959 15.6947 3.8959 14.7015C3.8959 13.7083 3.08821 12.9006 2.09502 12.9006H1.6448C1.52539 12.9006 1.41088 12.8532 1.32645 12.7688C1.24201 12.6843 1.19458 12.5698 1.19458 12.4504V10.6495C1.19458 9.40873 2.20487 8.39844 3.44568 8.39844H20.5541C21.7949 8.39844 22.8052 9.40873 22.8052 10.6495V12.4504C22.8052 12.5698 22.7577 12.6843 22.6733 12.7688C22.5889 12.8532 22.4744 12.9006 22.3549 12.9006H21.9047C21.549 12.9016 21.2015 13.0077 20.9059 13.2058C20.6104 13.4038 20.3801 13.6848 20.244 14.0135C20.1078 14.3422 20.072 14.7038 20.141 15.0528C20.2099 15.4018 20.3806 15.7226 20.6315 15.9747C20.971 16.3151 21.423 16.5024 21.9038 16.5024H22.354C22.4735 16.5024 22.588 16.5498 22.6724 16.6343C22.7568 16.7187 22.8043 16.8332 22.8043 16.9526V18.7535C22.8038 19.3502 22.5666 19.9224 22.1447 20.3444C21.7229 20.7665 21.1508 21.0039 20.5541 21.0046ZM2.09502 17.4028V18.7535C2.09502 19.4982 2.70102 20.1042 3.44568 20.1042H20.5541C21.2987 20.1042 21.9047 19.4982 21.9047 18.7535V17.4028C21.5501 17.4038 21.1979 17.3344 20.8702 17.1987C20.5425 17.063 20.245 16.8637 19.9949 16.6123C19.7432 16.3619 19.5437 16.0641 19.4078 15.7362C19.2719 15.4082 19.2025 15.0565 19.2034 14.7015C19.2034 13.2122 20.4154 12.0002 21.9047 12.0002V10.6495C21.9047 9.90488 21.2987 9.29888 20.5541 9.29888H3.44568C2.70102 9.29888 2.09502 9.90488 2.09502 10.6495V12.0002C3.58435 12.0002 4.79634 13.2122 4.79634 14.7015C4.79634 16.1909 3.58435 17.4028 2.09502 17.4028Z" fill="#3F9E9D" stroke="#3F9E9D" stroke-width="0.5"/>
<path d="M8.84832 10.1993C8.72892 10.1993 8.6144 10.1519 8.52997 10.0675C8.44554 9.98302 8.3981 9.86851 8.3981 9.7491V8.84866C8.3981 8.72925 8.44554 8.61474 8.52997 8.5303C8.6144 8.44587 8.72892 8.39844 8.84832 8.39844C8.96773 8.39844 9.08224 8.44587 9.16668 8.5303C9.25111 8.61474 9.29854 8.72925 9.29854 8.84866V9.7491C9.29854 9.86851 9.25111 9.98302 9.16668 10.0675C9.08224 10.1519 8.96773 10.1993 8.84832 10.1993ZM8.84832 17.818C8.72892 17.818 8.6144 17.7705 8.52997 17.6861C8.44554 17.6017 8.3981 17.4871 8.3981 17.3677V15.8451C8.3981 15.7257 8.44554 15.6112 8.52997 15.5267C8.6144 15.4423 8.72892 15.3949 8.84832 15.3949C8.96773 15.3949 9.08224 15.4423 9.16668 15.5267C9.25111 15.6112 9.29854 15.7257 9.29854 15.8451V17.3686C9.2983 17.4879 9.25077 17.6022 9.16636 17.6864C9.08195 17.7706 8.96757 17.818 8.84832 17.818ZM8.84832 14.0091C8.72892 14.0091 8.6144 13.9617 8.52997 13.8772C8.44554 13.7928 8.3981 13.6783 8.3981 13.5589V12.0353C8.3981 11.9159 8.44554 11.8014 8.52997 11.717C8.6144 11.6325 8.72892 11.5851 8.84832 11.5851C8.96773 11.5851 9.08224 11.6325 9.16668 11.717C9.25111 11.8014 9.29854 11.9159 9.29854 12.0353V13.5589C9.29854 13.6783 9.25111 13.7928 9.16668 13.8772C9.08224 13.9617 8.96773 14.0091 8.84832 14.0091ZM8.84832 21.0046C8.72892 21.0046 8.6144 20.9572 8.52997 20.8727C8.44554 20.7883 8.3981 20.6738 8.3981 20.5544V19.654C8.3981 19.5345 8.44554 19.42 8.52997 19.3356C8.6144 19.2512 8.72892 19.2037 8.84832 19.2037C8.96773 19.2037 9.08224 19.2512 9.16668 19.3356C9.25111 19.42 9.29854 19.5345 9.29854 19.654V20.5544C9.29854 20.6738 9.25111 20.7883 9.16668 20.8727C9.08224 20.9572 8.96773 21.0046 8.84832 21.0046Z" fill="#3F9E9D" stroke="#3F9E9D" stroke-width="0.5"/>
<path d="M3.4456 9.29898C3.33888 9.30127 3.23484 9.26541 3.15219 9.19786C3.06953 9.1303 3.01369 9.03548 2.9947 8.93043C2.97571 8.82539 2.99482 8.71702 3.04858 8.6248C3.10235 8.53258 3.18725 8.46257 3.28802 8.42735L17.605 3.08143C18.3011 2.8203 19.1187 3.21109 19.3564 3.91254L20.9799 8.70378C21.0165 8.81642 21.0073 8.93897 20.9542 9.04486C20.9011 9.15074 20.8085 9.23145 20.6963 9.26947C20.5841 9.3075 20.4615 9.29978 20.3549 9.248C20.2484 9.19621 20.1666 9.10453 20.1272 8.99283L18.5037 4.20158C18.4624 4.08776 18.3778 3.99481 18.2684 3.94289C18.159 3.89097 18.0336 3.88427 17.9193 3.92424L3.60228 9.27016C3.55228 9.28935 3.49916 9.29912 3.4456 9.29898Z" fill="#3F9E9D" stroke="#3F9E9D" stroke-width="0.5"/>
</svg>
